<?xml version="1.0" standalone="no"?>
<!DOCTYPE svg PUBLIC "-//W3C//DTD SVG 20010904//EN"
 "http://www.w3.org/TR/2001/REC-SVG-20010904/DTD/svg10.dtd">
<svg version="1.0"
  xmlns="http://www.w3.org/2000/svg" width="306.000000pt" height="306.000000pt" viewBox="0 0 306.000000 306.000000" preserveAspectRatio="xMidYMid meet">
  <metadata>
Created by potrace 1.14, written by Peter Selinger 2001-2017
  </metadata>
  <g transform="translate(0.000000,306.000000) scale(0.100000,-0.100000)" fill="#000000" stroke="none">
    <path d="M1210 2240 l0 -60 190 0 190 0 0 -65 0 -64 -62 -3 -63 -3 0 -190 0
-190 63 -3 62 -3 0 -59 0 -60 65 0 65 0 0 60 0 60 -65 0 -65 0 0 195 0 195 65
0 65 0 0 65 0 65 130 0 130 0 0 -65 0 -65 65 0 65 0 0 -65 0 -65 65 0 65 0 0
-195 0 -195 -260 0 -260 0 0 -65 0 -65 -65 0 -65 0 0 -65 0 -65 -65 0 -65 0 0
-60 0 -60 65 0 65 0 0 -65 0 -65 65 0 65 0 0 -65 0 -65 -320 0 -319 0 -3 63
-3 62 -127 3 -128 3 0 64 0 65 130 0 130 0 0 60 0 60 -195 0 -195 0 0 65 0 65
-65 0 -65 0 0 195 0 195 255 0 255 0 0 65 0 64 -62 3 -63 3 0 60 0 60 128 3
127 3 0 64 0 65 -125 0 -124 0 -3 -62 -3 -63 -62 -3 -63 -3 0 -64 0 -65 -130
0 -130 0 0 -65 0 -65 -59 0 -59 0 -7 -184 c-4 -101 -4 -189 -1 -195 4 -6 34
-11 67 -11 l59 0 0 -65 0 -65 59 0 58 0 6 -67 c4 -38 7 -96 7 -130 l0 -63 60
0 60 0 0 -39 c0 -22 4 -51 10 -65 9 -26 10 -26 130 -26 l120 0 0 -65 0 -65
328 2 327 3 3 63 3 62 297 0 c163 0 307 3 320 6 20 6 22 13 22 65 l0 58 63 3
62 3 3 128 3 127 27 0 c15 0 44 3 65 6 l38 7 -3 61 -3 61 -67 3 -68 3 0 64 0
65 -60 0 -60 0 0 190 0 190 -65 0 -65 0 0 65 0 65 -65 0 -65 0 0 65 0 65 -65
0 -65 0 0 60 0 60 -385 0 -385 0 0 -60z m1280 -900 l0 -60 -380 0 -380 0 0 60
0 60 380 0 380 0 0 -60z m-770 -130 l0 -60 -60 0 -60 0 0 60 0 60 60 0 60 0 0
-60z m640 -130 l0 -60 -315 0 -315 0 0 60 0 60 315 0 315 0 0 -60z"/>
    <path d="M1982 1794 l3 -127 60 0 60 1 0 123 0 124 -63 3 -63 3 3 -127z"/>
    <path d="M1080 1725 l0 -65 60 0 60 0 0 65 0 65 -60 0 -60 0 0 -65z"/>
    <path d="M1210 1535 l0 -125 60 0 60 0 0 125 0 125 -60 0 -60 0 0 -125z"/>
    <path d="M1080 1340 l0 -60 60 0 60 0 0 60 0 60 -60 0 -60 0 0 -60z"/>
    <path d="M0 15 c0 -13 177 -15 1530 -15 1353 0 1530 2 1530 15 0 13 -177 15
-1530 15 -1353 0 -1530 -2 -1530 -15z"/>
  </g>
</svg>
