<?xml version="1.0" standalone="no"?>
<!DOCTYPE svg PUBLIC "-//W3C//DTD SVG 20010904//EN"
 "http://www.w3.org/TR/2001/REC-SVG-20010904/DTD/svg10.dtd">
<svg version="1.0" xmlns="http://www.w3.org/2000/svg"
 width="500.000000pt" height="500.000000pt" viewBox="0 0 500.000000 500.000000"
 preserveAspectRatio="xMidYMid meet">
<metadata>
Created by potrace 1.14, written by Peter Selinger 2001-2017
</metadata>
<g transform="translate(0.000000,500.000000) scale(0.100000,-0.100000)"
fill="#000000" stroke="none">
<path d="M1845 3373 c-59 -6 -171 -36 -215 -58 -57 -29 -135 -111 -159 -168
-28 -66 -104 -346 -116 -427 -4 -25 -13 -76 -20 -115 -20 -99 -22 -116 -30
-181 -4 -33 -9 -66 -10 -75 -24 -130 -24 -444 0 -525 45 -156 133 -235 260
-236 164 -1 344 153 519 445 9 14 27 19 85 21 72 3 76 5 111 42 l36 39 197 0
c177 0 198 -2 203 -17 8 -28 70 -59 128 -65 49 -5 55 -8 70 -40 9 -19 21 -39
26 -46 23 -27 100 -137 100 -142 0 -3 27 -31 60 -61 171 -160 311 -211 437
-158 130 53 194 181 196 389 0 59 -11 221 -19 280 -2 17 -6 46 -9 65 -15 117
-20 156 -45 300 -12 69 -26 143 -31 165 -6 22 -15 56 -20 75 -24 96 -74 249
-90 282 -61 122 -221 209 -384 210 -41 1 -64 -5 -83 -19 -32 -23 -73 -104 -97
-188 -19 -64 -43 -102 -78 -122 -32 -18 -702 -18 -737 0 -35 18 -65 67 -90
150 -44 146 -91 189 -195 180z m1448 -281 c33 -29 20 -85 -26 -108 -28 -15
-32 -15 -56 4 -30 22 -40 74 -20 99 28 33 66 35 102 5z m-1469 -3 c3 -2 6 -35
8 -74 l3 -70 55 -2 c30 -1 65 -2 78 -2 21 -1 22 -5 22 -76 l0 -75 -80 0 -80 0
0 -80 0 -80 -69 0 c-46 0 -70 4 -73 13 -2 6 -4 40 -4 75 1 72 0 73 -94 69
l-55 -2 -3 78 -3 77 79 0 78 0 -2 75 c-1 61 2 75 15 77 21 4 121 2 125 -3z
m554 -183 c6 -28 -9 -32 -103 -31 -63 0 -89 5 -95 15 -19 31 9 41 104 38 80
-3 91 -5 94 -22z m440 -3 c4 -27 9 -26 -96 -28 -89 -2 -117 10 -92 40 10 12
31 15 99 13 81 -3 86 -4 89 -25z m265 -4 c60 -32 47 -103 -21 -124 -17 -5 -30
-1 -48 16 -30 28 -31 71 -2 99 25 23 40 25 71 9z m386 -15 c28 -36 26 -60 -6
-90 -31 -29 -67 -26 -95 8 -24 27 -23 51 5 82 29 34 69 34 96 0z m-1094 -99
c0 -18 -8 -20 -97 -23 l-98 -3 0 26 0 26 98 -3 c89 -3 97 -5 97 -23z m445 0
c0 -26 -1 -27 -75 -27 -99 0 -113 2 -119 18 -11 29 4 34 100 34 94 0 94 0 94
-25z m-270 -40 c39 -20 62 -66 55 -107 -15 -87 -121 -120 -183 -58 -26 26 -30
36 -28 77 5 83 82 126 156 88z m738 -15 c45 -42 18 -120 -41 -120 -63 0 -90
70 -45 117 27 28 57 29 86 3z m-1089 -139 c48 -34 66 -69 66 -129 0 -63 -17
-94 -71 -131 -39 -27 -108 -28 -152 -1 -111 68 -89 251 34 278 48 11 92 5 123
-17z m757 -3 c44 -30 65 -69 66 -122 2 -111 -117 -190 -211 -141 -101 52 -119
181 -36 254 31 27 43 31 92 31 42 0 65 -6 89 -22z"/>
</g>
</svg>
